# AST/ASF file generated using VICON BodyLanguage
# -----------------------------------------------
:version 1.10
:name VICON
:units
  mass 1.0
  length 0.45
  angle deg
:documentation
   .ast/.asf automatically generated from VICON data using
   VICON BodyBuilder and BodyLanguage model FoxedUp or BRILLIANT.MOD
:root
   order TX TY TZ RX RY RZ
   axis XYZ
   position 0 0 0  
   orientation 0 0 0 
:bonedata
  begin
     id 1 
     name lhipjoint
     direction 0.693937 -0.600361 0.397515 
     length 2.37164 
     axis 0 0 0  XYZ
  end
  begin
     id 2 
     name lfemur
     direction 0.34202 -0.939693 0  
     length 6.18497  
     axis 0 0 20  XYZ
    dof rx ry rz
    limits (-160.0 20.0)
           (-70.0 70.0)
           (-60.0 70.0)
  end
  begin
     id 3 
     name ltibia
     direction 0.34202 -0.939693 0   
     length 6.91601   
     axis 0 0 20   XYZ
    dof rx
    limits (-10.0 170.0)
  end
  begin
     id 4 
     name lfoot
     direction 0.0978718 -0.2689 0.958182   
     length 1.81453   
     axis -90 7.62852e-016 20   XYZ
    dof rx rz
    limits (-45.0 90.0)
           (-70.0 20.0)
  end
  begin
     id 5 
     name ltoes
     direction 1.53569e-011 -4.21951e-011 1   
     length 0.912052   
     axis -90 7.62852e-016 20   XYZ
    dof rx
    limits (-90.0 20.0)
  end
  begin
     id 6 
     name rhipjoint
     direction -0.643996 -0.637876 0.422354   
     length 2.23216  
     axis 0 0 0  XYZ 
  end
  begin
     id 7 
     name rfemur
     direction -0.34202 -0.939693 0   
     length 6.15404   
     axis 0 0 -20   XYZ
    dof rx ry rz
    limits (-160.0 20.0)
           (-70.0 70.0)
           (-70.0 60.0)
  end
  begin
     id 8 
     name rtibia
     direction -0.34202 -0.939693 0   
     length 6.86744   
     axis 0 0 -20   XYZ
    dof rx
    limits (-10.0 170.0)
 end
 begin
     id 9 
     name rfoot
     direction -0.118701 -0.326127 0.937844   
     length 1.9243  
     axis -90 -7.62852e-016 -20   XYZ
    dof rx rz
    limits (-45.0 90.0)
           (-20.0 70.0)
  end
  begin
     id 10 
     name rtoes
     direction -1.5356e-011 -4.2181e-011 1   
     length 0.958865   
     axis -90 -7.62852e-016 -20   XYZ
    dof rx
    limits (-90.0 20.0)
  end
  begin
     id 11 
     name lowerback
     direction 0.0310826 0.968686 -0.246334   
     length 2.00021   
     axis 0 0 0   XYZ
    dof rx ry rz
    limits (-20.0 45.0)
           (-30.0 30.0)
           (-30.0 30.0)
  end
  begin
     id 12 
     name upperback
     direction -0.0152834 0.999474 -0.0286152   
     length 2.03728   
     axis 0 0 0   XYZ
    dof rx ry rz
    limits (-20.0 45.0)
           (-30.0 30.0)
           (-30.0 30.0)
  end
  begin
     id 13 
     name thorax
     direction -0.0323701 0.996236 0.0804149   
     length 2.16   
     axis 0 0 0   XYZ
    dof rx ry rz
    limits (-20.0 45.0)
           (-30.0 30.0)
           (-30.0 30.0)
  end
  begin
     id 14 
     name lowerneck
     direction 0.0307935 0.982251 0.185027   
     length 1.43558   
     axis 0 0 0   XYZ
    dof rx ry rz
    limits (-20.0 45.0)
           (-30.0 30.0)
           (-30.0 30.0)
  end
  begin
     id 15 
     name upperneck
     direction -0.0927153 0.994775 0.0427454   
     length 1.44603   
     axis 0 0 0   XYZ
    dof rx ry rz
    limits (-20.0 45.0)
           (-30.0 30.0)
           (-30.0 30.0)
  end
  begin
     id 16
     name head
     direction -0.0341265 0.999406 -0.00472033  
     length 1.45931  
     axis 0 0 0   XYZ
    dof rx ry rz
    limits (-20.0 45.0)
           (-30.0 30.0)
           (-30.0 30.0)
  end
  begin
     id 17 
     name lclavicle
     direction 0.820755 0.555306 -0.134151  
     length 2.66075  
     axis 0 0 0   XYZ
    dof ry rz
    limits (-20.0 10.0)
           (0.0 20.0)
  end
  begin
     id 18 
     name lhumerus
     direction 1 -4.48971e-011 5.24853e-027   
     length 5.0546   
     axis -180 -30 -90   XYZ
    dof rx ry rz
    limits (-60.0 90.0)
           (-90.0 90.0)
           (-90.0 90.0)
  end
  begin
     id 19
     name lradius
     direction 1 -4.48971e-011 2.76575e-028   
     length 3.39013   
     axis -180 -30 -90   XYZ
    dof rx
    limits (-10.0 170.0)
  end
  begin
     id 20
     name lwrist
     direction 1 -4.48939e-011 -2.27826e-027   
     length 1.69507   
     axis 2.17013e-015 90 90   XYZ
    dof ry
    limits (-180.0 0.0)
 end
  begin
     id 21 
     name lhand
     direction 1 -4.49009e-011 -4.55652e-027   
     length 0.572425   
     axis 2.90745e-015 90 90   XYZ
    dof rx rz
    limits (-90.0 90.0)
           (-45.0 45.0)
  end
  begin
     id 22 
     name lfingers
     direction 1 -4.48955e-011 -9.11303e-027   
     length 0.461504   
     axis 5.81489e-015 90 90   XYZ
    dof rx
    limits (0.0 90.0)
  end
  begin
     id 23
     name lthumb
     direction 0.707107 -6.34929e-011 0.707107   
     length 0.66263   
     axis -90 45 2.85299e-015   XYZ
    dof rx rz
    limits (-45.0 45.0)
           (-45.0 45.0)
  end
  begin
     id 24 
     name rclavicle
     direction -0.754477 0.632921 -0.173712   
     length 2.73081  
     axis 0 0 0   XYZ 
    dof ry rz
    limits (-10.0 20.0)
           (-20.0 0.0)
  end
  begin
     id 25 
     name rhumerus
     direction -1 -4.48969e-011 5.1496e-027  
     length 5.0701   
     axis -180 30 90   XYZ
    dof rx ry rz
    limits (-90.0 60.0)
           (-90.0 90.0)
           (-90.0 90.0)
  end
  begin
     id 26 
     name rradius
     direction -1 -4.48967e-011 -7.15624e-028   
     length 3.14957   
     axis -180 30 90   XYZ
    dof rx
    limits (-10.0 170.0)
  end
  begin
     id 27 
     name rwrist
     direction -1 -4.48938e-011 -2.27826e-027   
     length 1.57479   
     axis 2.17013e-015 -90 -90   XYZ
    dof ry
    limits (-180.0 0.0)
  end
  begin
     id 28
     name rhand
     direction -1 -4.49008e-011 -4.55652e-027   
     length 0.718191   
     axis 2.90745e-015 -90 -90   XYZ
    dof rx rz
    limits (-90.0 90.0)
           (-45.0 45.0)
  end
  begin
     id 29
     name rfingers
     direction -1 -4.48953e-011 -9.11303e-027   
     length 0.579024   
     axis 5.81489e-015 -90 -90   XYZ
    dof rx
    limits (0.0 90.0)
  end
  begin
     id 30
     name rthumb
     direction -0.707107 -6.34937e-011 0.707107   
     length 0.831366   
     axis -90 -45 -2.85299e-015   XYZ
    dof rx rz
    limits (-45.0 45.0)
           (-45.0 45.0)
  end
:hierarchy
  begin
    root lhipjoint rhipjoint lowerback
    lhipjoint lfemur
    lfemur ltibia
    ltibia lfoot
    lfoot ltoes
    rhipjoint rfemur
    rfemur rtibia
    rtibia rfoot
    rfoot rtoes
    lowerback upperback
    upperback thorax
    thorax lowerneck lclavicle rclavicle
    lowerneck upperneck
    upperneck head
    lclavicle lhumerus
    lhumerus lradius
    lradius lwrist
    lwrist lhand lthumb
    lhand lfingers
    rclavicle rhumerus
    rhumerus rradius
    rradius rwrist
    rwrist rhand rthumb
    rhand rfingers
  end

#!OML:ASF H:\Male1\Project 1\Capture day 1\Session 1\Male1.ASF
:FULLY-SPECIFIED
:DEGREES
137
root 21.4382 15.1487 -0.563029 65.584 -86.9575 -66.696
lowerback 7.99984 1.23841 -0.121479
upperback 5.52786 1.44321 -1.86852
thorax 1.27783 0.666348 -1.95632
lowerneck 3.18398 2.68297 8.05155
upperneck -17.2164 3.50706 -3.70776
head -5.49625 1.33112 -2.68009
rclavicle 6.95746e-015 2.38542e-014
rhumerus -10.244 28.1958 -94.9325
rradius 95.4928
rwrist -36.235
rhand -30.5334 -6.32141
rfingers 7.12502
rthumb -3.83254 -36.2667
lclavicle 6.95746e-015 2.38542e-014
lhumerus -3.95702 -31.2596 74.0263
lradius 109.362
lwrist -15.712
lhand -35.6157 2.9408
lfingers 7.12502
lthumb -8.73892 32.7399
rfemur -11.8341 6.89343 23.5556
rtibia 34.9757
rfoot -32.0733 -30.3091
rtoes -15.2972
lfemur -15.5199 -13.1461 -13.4004
ltibia 39.0519
lfoot -23.5054 20.8329
ltoes -9.56148
138
root 21.4543 15.1361 -0.567548 63.4625 -86.8156 -64.8779
lowerback 8.35539 1.19185 0.00879378
upperback 5.56613 1.38081 -1.84652
thorax 1.12291 0.635691 -2.00979
lowerneck 3.23858 2.70509 8.12217
upperneck -17.6646 3.55517 -3.56384
head -5.64582 1.32254 -2.65783
rclavicle -1.70955e-014 4.13472e-014
rhumerus -9.65385 28.5166 -94.7107
rradius 97.4996
rwrist -35.0397
rhand -31.6129 -5.6432
rfingers 7.12502
rthumb -4.87493 -35.5671
lclavicle -1.70955e-014 4.13472e-014
lhumerus -1.76432 -31.9724 72.9972
lradius 110.749
lwrist -15.8526
lhand -36.3192 3.59662
lfingers 7.12502
lthumb -9.41779 33.3662
rfemur -11.8193 6.64635 23.65
rtibia 35.3738
rfoot -32.0944 -29.9625
rtoes -14.4102
lfemur -15.8064 -12.6343 -13.3082
ltibia 39.7451
lfoot -22.9247 20.5874
ltoes -10.0703
139
root 21.4723 15.1257 -0.568532 61.518 -86.634 -63.1761
lowerback 8.62966 1.12409 0.161919
upperback 5.52994 1.29808 -1.78395
thorax 0.933978 0.596275 -2.03107
lowerneck 3.48397 2.64333 8.29194
upperneck -17.9782 3.49645 -3.60087
head -5.78654 1.27607 -2.70502
rclavicle -7.7526e-015 7.15625e-015
rhumerus -9.17376 28.8252 -94.5054
rradius 99.5846
rwrist -33.7753
rhand -32.4217 -4.88756
rfingers 7.12502
rthumb -5.65585 -34.7921
lclavicle -7.7526e-015 7.15625e-015
lhumerus 0.67801 -32.6865 71.886
lradius 112.086
lwrist -15.8071
lhand -37.0137 3.44691
lfingers 7.12502
lthumb -10.0879 33.1851
rfemur -11.8705 6.22309 23.7359
rtibia 35.7779
rfoot -32.0899 -29.5697
rtoes -13.6184
lfemur -16.1893 -12.2319 -13.1571
ltibia 40.4708
lfoot -23.1097 19.6462
ltoes -6.23392
140
root 21.5025 15.1174 -0.572333 57.0627 -86.5091 -58.7802
lowerback 8.78484 0.951736 0.165442
upperback 5.44307 1.07083 -1.76509
thorax 0.749809 0.482488 -1.99961
lowerneck 3.73132 2.70527 8.39459
upperneck -18.4274 3.59741 -3.63598
head -5.96183 1.30562 -2.75154
rclavicle 2.74323e-014 -9.54166e-015
rhumerus -7.80694 29.3108 -93.82
rradius 101.356
rwrist -33.0752
rhand -33.1983 -4.52931
rfingers 7.12502
rthumb -6.40561 -34.4124
lclavicle 2.74323e-014 -9.54166e-015
lhumerus 3.31798 -33.1088 70.4949
lradius 113.263
lwrist -15.8679
lhand -37.5842 3.35743
lfingers 7.12502
lthumb -10.6382 33.0681
rfemur -12.1751 5.66964 23.6393
rtibia 36.1925
rfoot -31.9634 -29.3614
rtoes -13.4386
lfemur -16.8645 -11.6861 -13.1846
ltibia 41.2392
lfoot -22.9942 18.9403
ltoes -3.64887
141
root 21.5244 15.1097 -0.572339 61.45 -86.7166 -63.351
lowerback 8.81559 0.946202 0.126639
upperback 5.46436 1.05843 -1.76215
thorax 0.753754 0.474421 -1.97416
lowerneck 3.89347 2.77369 8.34484
upperneck -18.8634 3.70694 -3.52345
head -6.12491 1.33662 -2.72493
rclavicle -1.59028e-015 -1.66979e-014
rhumerus -6.56486 29.92 -93.4297
rradius 103.326
rwrist -31.9187
rhand -34.1224 -4.26129
rfingers 7.12502
rthumb -7.29772 -34.1154
lclavicle -1.59028e-015 -1.66979e-014
lhumerus 6.12883 -33.2202 68.8879
lradius 114.321
lwrist -16.0094
lhand -37.6097 3.67731
lfingers 7.12502
lthumb -10.6628 33.3868
rfemur -12.3988 5.39213 23.5334
rtibia 36.593
rfoot -31.1273 -29.2817
rtoes -14.7038
lfemur -17.2559 -10.6044 -13.3443
ltibia 42.0491
lfoot -22.443 19.0645
ltoes -4.19298
142
root 21.5553 15.0985 -0.569754 67.8815 -86.5829 -70.0831
lowerback 8.97845 0.8913 0.780324
upperback 5.53821 1.0251 -1.92957
thorax 0.757638 0.473974 -2.51503
lowerneck 4.16917 3.01856 8.81761
upperneck -19.8039 4.07968 -3.59732
head -6.43898 1.45077 -2.87198
rclavicle -6.36111e-015 4.77083e-015
rhumerus -5.0684 30.2713 -93.2977
rradius 105.133
rwrist -30.5211
rhand -35.0378 -3.68703
rfingers 7.12502
rthumb -8.18122 -33.5086
lclavicle -6.36111e-015 4.77083e-015
lhumerus 9.299 -33.2681 66.7126
lradius 115.304
lwrist -15.9538
lhand -37.6138 4.08472
lfingers 7.12502
lthumb -10.6668 33.794
rfemur -12.5264 5.17417 23.7845
rtibia 36.972
rfoot -30.3329 -29.1352
rtoes -15.3769
lfemur -17.6668 -9.66319 -13.1628
ltibia 42.9408
lfoot -21.9318 19.1329
ltoes -4.61444
143
root 21.588 15.0904 -0.564377 73.6174 -86.4431 -76.0563
lowerback 9.15778 0.850217 1.43538
upperback 5.465 1.01729 -2.13648
thorax 0.602226 0.486834 -3.10219
lowerneck 4.48646 3.00066 9.34083
upperneck -20.2613 4.13783 -3.5819
head -6.62986 1.42031 -2.9734
rclavicle 1.13307e-014 0
rhumerus -3.45357 30.4583 -93.1131
rradius 106.694
rwrist -29.7617
rhand -35.8502 -2.49418
rfingers 7.12502
rthumb -8.96525 -32.2837
lclavicle 1.13307e-014 0
lhumerus 12.2157 -33.2205 64.6418
lradius 116.13
lwrist -15.9313
lhand -38.1149 4.17347
lfingers 7.12502
lthumb -11.1501 33.8572
rfemur -12.6887 4.94355 23.9616
rtibia 37.321
rfoot -29.6232 -28.7604
rtoes -15.5271
lfemur -18.1544 -8.80484 -12.9959
ltibia 43.8569
lfoot -21.5896 19.0088
ltoes -4.49887
144
root 21.6271 15.0832 -0.558295 78.5412 -86.367 -81.1725
lowerback 9.25158 0.80267 1.50675
upperback 5.39591 0.963835 -1.99672
thorax 0.474026 0.458764 -2.99487
lowerneck 4.57064 3.19377 9.43555
upperneck -20.5518 4.37302 -3.8097
head -6.7121 1.53243 -3.08472
rclavicle -7.7526e-015 3.10104e-014
rhumerus -1.55675 31.0176 -92.3636
rradius 108.036
rwrist -29.2175
rhand -36.7503 -1.18959
rfingers 7.12502
rthumb -9.83375 -30.94
lclavicle -7.7526e-015 3.10104e-014
lhumerus 14.8318 -32.7059 63.2757
lradius 116.954
lwrist -15.6453
lhand -37.7442 4.59267
lfingers 7.12502
lthumb -10.7925 34.2954
rfemur -12.9288 4.57936 23.9854
rtibia 37.6809
rfoot -28.846 -28.2071
rtoes -15.5454
lfemur -18.692 -8.08324 -12.9028
ltibia 44.76
lfoot -20.9222 19.0022
ltoes -4.80362
145
root 21.6715 15.0739 -0.548754 85.4838 -86.2396 -88.3951
lowerback 9.23768 0.778473 1.64573
upperback 5.47502 0.940697 -1.84089
thorax 0.562245 0.448651 -2.90883
lowerneck 4.45012 3.38383 9.47063
upperneck -20.6933 4.56733 -4.07232
head -6.71208 1.63639 -3.18681
rclavicle -5.96354e-015 7.95139e-015
rhumerus 0.734651 31.5539 -91.5115
rradius 109.031
rwrist -28.544
rhand -37.7302 0.165626
rfingers 7.12502
rthumb -10.779 -29.5378
lclavicle -5.96354e-015 7.95139e-015
lhumerus 17.4853 -31.924 62.0391
lradius 117.444
lwrist -15.9461
lhand -38.5534 4.72599
lfingers 7.12502
lthumb -11.573 34.3865
rfemur -13.1867 4.19415 24.0216
rtibia 38.144
rfoot -27.8282 -27.6871
rtoes -16.4293
lfemur -18.9749 -7.21783 -12.7616
ltibia 45.4962
lfoot -20.2414 18.862
ltoes -4.86308
146
root 21.7202 15.0649 -0.537046 93.9157 -86.0048 -97.1338
lowerback 9.2778 0.800194 1.75109
upperback 5.49921 0.978271 -1.61693
thorax 0.565404 0.466346 -2.7395
lowerneck 4.43872 3.52805 9.48552
upperneck -20.7265 4.71209 -4.34713
head -6.69924 1.72598 -3.28668
rclavicle -1.39149e-015 1.03368e-014
rhumerus 2.99398 31.8689 -90.6842
rradius 109.952
rwrist -28.9459
rhand -38.1201 1.9394
rfingers 7.12502
rthumb -11.1551 -27.7441
lclavicle -1.39149e-015 1.03368e-014
lhumerus 19.8172 -31.0609 61.1273
lradius 117.743
lwrist -16.2035
lhand -39.7957 4.58754
lfingers 7.12502
lthumb -12.7708 34.1769
rfemur -13.575 3.81461 24.0932
rtibia 38.7953
rfoot -26.5728 -27.2139
rtoes -18.3381
lfemur -19.0095 -6.13449 -12.5477
ltibia 45.9392
lfoot -19.8177 18.5317
ltoes -4.63038
